<?xml version="1.0" encoding="UTF-8"?><svg id="Layer_1" xmlns="http://www.w3.org/2000/svg" width="219.1" height="60" viewBox="0 0 219.1 60"><defs><style>.cls-1{fill:#c10230;}.cls-2{fill:#fff;}</style></defs><path class="cls-2" d="M0,0v43.98c0,8.39,10.49,14.3,20.65,16.02,10.16-1.72,20.65-7.63,20.65-16.02V0H0ZM39.44,43.98c0,4.1-3.11,7.15-5.73,8.98-3.41,2.4-8.15,4.27-13.06,5.14-4.91-.87-9.65-2.74-13.06-5.14-2.61-1.84-5.73-4.89-5.73-8.98v-.99h4.8v3.53c0,.1.08.18.18.18h3.23c.1,0,.18-.08.18-.18v-3.53h8.54v3.53c0,.1.08.18.18.18h3.22c.1,0,.18-.08.18-.18v-3.53h8.54v3.53c0,.1.08.18.18.18h3.22c.1,0,.18-.08.18-.18v-3.53h4.93v.99ZM22.28,37.61c-.36-.18-.57-.55-.57-.95v-17.35c.02-.38.3-.7.68-.75h8.52c.39.05.68.39.68.78v17.31c0,.4-.22.76-.57.95-.06.03-.1.09-.1.16v3.19h-7.2l-1.34,1.28v-4.47c0-.07-.04-.13-.1-.16ZM9.86,16.4c.48-2.34,1.73-4.49,3.55-6.07,1.99-1.73,4.54-2.68,7.17-2.68s5.18.95,7.17,2.68c1.81,1.57,3.07,3.73,3.55,6.07H9.86ZM10.25,18.57h8.52c.39.05.68.39.68.78v17.31c0,.4-.22.76-.57.95-.06.03-.1.09-.1.16v3.19h-7.2l-1.34,1.28v-4.47c0-.07-.04-.13-.1-.16-.36-.18-.57-.55-.57-.95v-17.35c.02-.38.3-.7.68-.75ZM39.44,40.96h-3.58s-1.34,1.28-1.34,1.28v-4.47c0-.07-.04-.13-.1-.16-.36-.18-.57-.55-.57-.95v-17.35c.02-.38.3-.7.68-.75.09-.01.16-.09.16-.18v-1.81c0-.1-.08-.18-.18-.18h-1.3c-.5-2.89-2-5.54-4.22-7.47-2.32-2.02-5.3-3.13-8.39-3.13s-6.06,1.11-8.39,3.13c-2.22,1.93-3.72,4.58-4.22,7.47h-1.3c-.1,0-.18.08-.18.18v1.81c0,.09.07.17.16.18.39.05.68.39.68.78v17.31c0,.4-.22.76-.57.95-.06.03-.1.09-.1.16v3.19H1.86V1.87h37.57v39.1Z"/><path d="M31.3,16.4H9.86c.48-2.34,1.73-4.49,3.55-6.07,1.99-1.73,4.54-2.68,7.17-2.68s5.18.95,7.17,2.68c1.81,1.57,3.07,3.73,3.55,6.07Z"/><path d="M19.46,19.35v17.31c0,.4-.22.76-.57.95-.06.03-.1.09-.1.16v3.19h-7.2l-1.34,1.28v-4.47c0-.07-.04-.13-.1-.16-.36-.18-.57-.55-.57-.95v-17.35c.02-.38.3-.7.68-.75h8.52c.39.05.68.39.68.78Z"/><path d="M31.59,19.35v17.31c0,.4-.22.76-.57.95-.06.03-.1.09-.1.16v3.19h-7.2l-1.34,1.28v-4.47c0-.07-.04-.13-.1-.16-.36-.18-.57-.55-.57-.95v-17.35c.02-.38.3-.7.68-.75h8.52c.39.05.68.39.68.78Z"/><path class="cls-1" d="M34.51,42.99v3.53c0,.1-.08.18-.18.18h-3.22c-.1,0-.18-.08-.18-.18v-3.53h-8.54v3.53c0,.1-.08.18-.18.18h-3.22c-.1,0-.18-.08-.18-.18v-3.53h-8.54v3.53c0,.1-.08.18-.18.18h-3.23c-.1,0-.18-.08-.18-.18v-3.53H1.86v.99c0,4.1,3.11,7.15,5.73,8.98,3.41,2.4,8.16,4.27,13.06,5.14,4.91-.87,9.65-2.74,13.06-5.14,2.61-1.84,5.73-4.89,5.73-8.98v-.99h-4.93ZM15.66,53.61h-2.53v-.25c.49-.02.72-.07.72-.3v-2.56c0-.19-.03-.31-.12-.39-.1-.1-.29-.15-.59-.15h-.05v-.24l1.83-.13v3.46c0,.24.24.29.73.3v.25ZM19.9,50.03l-1.13,2-.82,1.64h-.83v-.22l2.15-2.95.03-.04h-1.45c-.58,0-.71.14-.82.62h-.23l.04-1.46h3.06v.42ZM22.54,53.72c-1.08,0-1.7-.37-1.7-1.02,0-.4.26-.71.79-.92l.04-.02-.04-.02c-.44-.26-.67-.59-.67-.98,0-.76.61-1.25,1.56-1.25,1.02,0,1.48.5,1.48.96,0,.37-.27.65-.79.85l-.05.02.05.02c.62.27.92.63.92,1.1,0,.72-.69,1.26-1.6,1.26ZM26.92,53.71c-.99,0-1.59-.34-1.59-.92,0-.33.23-.55.57-.55s.51.27.51.53c0,.22-.15.41-.3.49l-.03.02.03.02c.09.07.37.14.56.14.56,0,.84-.33.84-.99,0-.59-.31-.93-.84-.93-.36,0-.6.09-.88.25l-.2-.16.08-1.99h2.64l-.06.81h-2.21l-.05.94v.04s.03-.02.03-.02c.3-.14.58-.19.95-.19.74,0,1.53.31,1.53,1.19,0,.64-.5,1.32-1.59,1.32Z"/><path d="M39.44,1.87v39.1h-3.58s-1.34,1.28-1.34,1.28v-4.47c0-.07-.04-.13-.1-.16-.36-.18-.57-.55-.57-.95v-17.35c.02-.38.3-.7.68-.75.09-.01.16-.09.16-.18v-1.81c0-.1-.08-.18-.18-.18h-1.3c-.5-2.89-2-5.54-4.22-7.47-2.32-2.02-5.3-3.13-8.39-3.13s-6.06,1.11-8.39,3.13c-2.22,1.93-3.72,4.58-4.22,7.47h-1.3c-.1,0-.18.08-.18.18v1.81c0,.09.07.17.16.18.39.05.68.39.68.78v17.31c0,.4-.22.76-.57.95-.06.03-.1.09-.1.16v3.19H1.86V1.87h37.57Z"/><path class="cls-2" d="M15.66,53.37v.25h-2.53v-.25c.49-.02.72-.07.72-.3v-2.56c0-.19-.03-.31-.12-.39-.1-.1-.29-.15-.59-.15h-.05v-.24l1.83-.13v3.46c0,.24.24.29.73.3Z"/><path class="cls-2" d="M19.9,49.61v.42l-1.13,2-.82,1.64h-.83v-.22l2.15-2.95.03-.04h-1.45c-.58,0-.71.14-.82.62h-.23l.04-1.46h3.06Z"/><path class="cls-2" d="M23.22,51.36l-.05-.02.05-.02c.53-.2.79-.48.79-.85,0-.46-.47-.96-1.48-.96-.95,0-1.56.49-1.56,1.25,0,.4.22.72.67.98l.04.02-.04.02c-.52.21-.79.52-.79.92,0,.65.62,1.02,1.7,1.02.91,0,1.6-.54,1.6-1.26,0-.48-.3-.84-.92-1.1ZM22.44,49.78c.47,0,.77.27.77.69,0,.29-.09.52-.3.76h-.01s-.02,0-.02,0c-.53-.19-1.04-.42-1.04-.9,0-.37.3-.56.6-.56ZM22.53,53.45c-.53,0-.86-.44-.86-.84,0-.27.09-.49.28-.7h.01s.02,0,.02,0c.06.03.14.05.22.07.76.25,1.03.47,1.03.83,0,.38-.28.63-.7.63Z"/><path class="cls-1" d="M23.21,50.47c0,.29-.09.52-.3.76h-.01s-.02,0-.02,0c-.53-.19-1.04-.42-1.04-.9,0-.37.3-.56.6-.56.47,0,.77.27.77.69Z"/><path class="cls-1" d="M23.24,52.82c0,.38-.28.63-.7.63-.53,0-.86-.44-.86-.84,0-.27.09-.49.28-.7h.01s.02,0,.02,0c.06.03.14.05.22.07.76.25,1.03.47,1.03.83Z"/><path class="cls-2" d="M28.52,52.39c0,.64-.5,1.32-1.59,1.32-.99,0-1.59-.34-1.59-.92,0-.33.23-.55.57-.55s.51.27.51.53c0,.22-.15.41-.3.49l-.03.02.03.02c.09.07.37.14.56.14.56,0,.84-.33.84-.99,0-.59-.31-.93-.84-.93-.36,0-.6.09-.88.25l-.2-.16.08-1.99h2.64l-.06.81h-2.21l-.05.94v.04s.03-.02.03-.02c.3-.14.58-.19.95-.19.74,0,1.53.31,1.53,1.19Z"/><path d="M38.4,55.53c0,.52-.41.92-.93.92s-.94-.41-.94-.92.42-.91.94-.91.93.41.93.91ZM36.76,55.53c0,.41.3.73.71.73s.7-.32.7-.72-.29-.73-.7-.73-.71.33-.71.73ZM37.32,56.01h-.21v-.91c.08-.02.2-.03.35-.03.17,0,.25.03.32.07.05.04.09.11.09.2,0,.1-.08.18-.19.21h0c.09.04.14.11.17.23.03.14.04.19.07.23h-.23s-.04-.12-.07-.22c-.02-.1-.07-.14-.19-.14h-.1v.37ZM37.33,55.49h.1c.12,0,.21-.04.21-.13,0-.08-.06-.14-.19-.14-.06,0-.09,0-.12.01v.26Z"/><path d="M53.88,13.07c0-3.54,2.28-5.83,5.46-5.83s5.48,2.22,5.48,5.76-2.3,5.83-5.48,5.83-5.46-2.2-5.46-5.76ZM62.28,13.04c0-3.6-1.09-5.07-3.01-5.07s-2.86,1.48-2.86,5.07,1.09,5.07,2.99,5.07,2.87-1.46,2.87-5.07Z"/><path d="M73.25,7.8l.02-.02c.71-.71,1.65-1.02,2.96-1.02,1.76,0,2.76.72,2.76,1.6,0,.67-.44,1.09-1.13,1.09s-1.18-.42-1.18-1.14c0-.29.12-.57.25-.74-.15-.12-.42-.2-.79-.2-.47,0-.87.12-1.21.45-.39.4-.6,1.06-.6,2.17v.91h2.08l3.01-.12v6.6c0,.4.2.57,1.18.59v.6h-4.17v-.6c.76-.02.99-.18.99-.59v-5.61h-3.09v5.61c0,.4.18.55.99.59v.6h-3.98v-.6c.76-.02.99-.18.99-.59v-5.61h-3.09v5.61c0,.4.18.55.99.59v.6h-4.17v-.6c.96-.02,1.18-.18,1.18-.59v-5.58h-1.44v-.64l1.44-.3v-.2c0-1.33.34-2.27.96-2.91.67-.66,1.53-.96,2.74-.96s2,.42,2.32,1.01ZM72.33,10.7c0-.47.03-.91.12-1.29h-.02c-.64,0-1.11-.39-1.11-1.18,0-.24.07-.47.15-.67-.13-.1-.34-.17-.62-.17-.42,0-.76.1-1.06.4-.4.4-.55,1.01-.55,2.13v.96h3.09v-.18Z"/><path d="M81.55,14.79c0-2.5,1.71-4.13,4-4.13,2.12,0,2.94,1.08,2.94,1.93,0,.69-.4,1.19-1.08,1.19-.76,0-1.14-.44-1.14-1.02,0-.42.29-.81.5-.94-.17-.27-.6-.52-1.16-.52-1.16,0-1.95,1.04-1.95,3.23,0,1.86.82,3.14,2.45,3.14.86,0,1.58-.45,2.15-1.16l.42.35c-.74,1.13-1.71,1.88-3.29,1.88-2.39,0-3.85-1.58-3.85-3.95Z"/><path d="M89.61,14.79c0-2.49,1.55-4.13,3.86-4.13s3.46,1.85,3.33,3.95h-5.07v.1c0,1.8.81,3.04,2.39,3.04.89,0,1.65-.54,2.3-1.38l.42.35c-.71,1.14-1.68,2.02-3.36,2.02-2.49,0-3.86-1.55-3.86-3.95ZM91.75,14l2.99-.05c.17-1.44-.3-2.64-1.38-2.64-.92,0-1.5.89-1.61,2.69Z"/><path d="M101.32,14.7c0-2.44,1.55-4.05,3.98-4.05s3.95,1.55,3.95,3.98-1.53,4.1-3.95,4.1-3.98-1.58-3.98-4.03ZM107.1,14.67c0-2.32-.64-3.36-1.88-3.36s-1.75,1.04-1.75,3.36.66,3.39,1.9,3.39,1.73-1.06,1.73-3.39Z"/><path d="M110.41,17.96c.96-.02,1.18-.18,1.18-.59v-5.58h-1.44v-.64l1.44-.3v-.37c0-1.33.32-2.25.92-2.87.59-.59,1.38-.86,2.35-.86,1.56,0,2.3.69,2.3,1.46,0,.64-.39,1.09-1.04,1.09-.59,0-1.09-.37-1.09-1.21,0-.17.05-.45.1-.64-.15-.07-.29-.1-.42-.1-.25,0-.45.07-.66.27-.3.3-.47.89-.47,2.1v1.16h2.12v.87h-2.12v5.61c0,.4.32.54,1.63.59v.6h-4.8v-.6Z"/><path d="M120.93,16.43v-4.69h-1.44v-.64l1.48-.3v-2.1l1.97-.66v2.79h2.47v.87h-2.47v4.62c0,.84.34,1.28.97,1.28.47,0,.89-.39,1.26-1.01l.49.32c-.59,1.19-1.36,1.78-2.57,1.78s-2.15-.66-2.15-2.27Z"/><path d="M126.12,17.96c.96-.02,1.18-.18,1.18-.59v-8.95c0-.5-.24-.81-1.24-.82v-.6l3.24-.13v5.16c.87-.67,1.86-1.29,2.96-1.29,1.31,0,2,.86,2,2.42v4.23c0,.4.2.57,1.18.59v.6h-4.13v-.6c.71-.02.96-.18.96-.59v-3.73c0-1.16-.44-1.61-1.33-1.61-.62,0-1.18.27-1.63.55v4.79c0,.4.24.57.96.59v.6h-4.13v-.6Z"/><path d="M136.25,14.79c0-2.49,1.55-4.13,3.86-4.13s3.46,1.85,3.33,3.95h-5.07v.1c0,1.8.81,3.04,2.39,3.04.89,0,1.65-.54,2.3-1.38l.42.35c-.71,1.14-1.68,2.02-3.36,2.02-2.49,0-3.86-1.55-3.86-3.95ZM138.38,14l2.99-.05c.17-1.44-.3-2.64-1.38-2.64-.92,0-1.5.89-1.61,2.69Z"/><path d="M151.85,17.19c0,.55.37.67,1.53.72v.66h-5.43v-.66c1.33-.05,1.58-.2,1.58-.72v-8.32c0-.52-.25-.67-1.58-.72v-.64h5.31c3.36,0,4.35,1.29,4.35,2.69s-.76,2.35-3.06,2.77v.05c2.18.1,2.64.96,2.81,2.22l.2,1.39c.13,1.06.42,1.26,1.6,1.33v.66c-.39.03-.82.05-1.14.05-2.4,0-2.79-.57-2.89-2l-.1-1.29c-.1-1.63-.62-2-2.35-2h-.82v3.81ZM152.84,12.69c1.92,0,2.35-.74,2.35-2.35,0-1.43-.6-2.12-2.47-2.12h-.87v4.47h.99Z"/><path d="M159.55,14.79c0-2.49,1.55-4.13,3.86-4.13s3.46,1.85,3.33,3.95h-5.07v.1c0,1.8.81,3.04,2.39,3.04.89,0,1.65-.54,2.3-1.38l.42.35c-.71,1.14-1.68,2.02-3.36,2.02-2.49,0-3.86-1.55-3.86-3.95ZM161.68,14l2.99-.05c.17-1.44-.3-2.64-1.38-2.64-.92,0-1.5.89-1.61,2.69Z"/><path d="M172.97,10.97c.39-.76.89-1.43,1.76-1.43.66,0,1.02.39,1.02.89,0,.42-.3.79-.77.79-.39,0-.74-.29-.74-.84-.34.12-.64.44-.81.81.77.42,1.26,1.13,1.26,2.08,0,1.63-1.36,2.64-3.24,2.64-.32,0-.62-.03-.92-.08-.62.24-.94.45-.94.76,0,.34.34.6,1.81.6h.76c2.25,0,3.28.62,3.28,2.08s-1.55,2.74-4.23,2.74c-2.08,0-3.48-.77-3.48-1.78,0-.74.67-1.38,1.97-1.56v-.08c-1.04-.32-1.38-.77-1.38-1.43s.47-1.11,1.41-1.55c-.92-.39-1.55-1.13-1.55-2.27,0-1.61,1.38-2.62,3.28-2.62.54,0,1.06.08,1.51.25ZM174.03,19.93c0-.64-.44-1.01-2.44-1.01h-1.39c-.71.2-1.13.54-1.13,1.13,0,.74.82,1.34,2.57,1.34,1.44,0,2.39-.6,2.39-1.46ZM172.75,13.31c0-1.24-.5-1.97-1.38-1.97s-1.23.55-1.23,1.97.52,1.98,1.38,1.98,1.23-.55,1.23-1.98Z"/><path d="M176.13,17.96c.96-.02,1.21-.18,1.21-.59v-5.04c0-.5-.24-.81-1.21-.82v-.6l3.21-.13v6.6c0,.4.2.57,1.18.59v.6h-4.38v-.6ZM177.08,8.03c0-.76.49-1.28,1.23-1.28s1.23.49,1.23,1.23-.49,1.26-1.23,1.26-1.23-.45-1.23-1.21Z"/><path d="M181.7,16.05h.64c.74,1.24,1.7,1.97,2.59,1.97s1.28-.47,1.28-1.04c0-.72-.55-1.06-2.05-1.5-1.75-.5-2.42-1.08-2.42-2.23,0-1.55,1.23-2.57,3.02-2.57.57,0,1.28.22,1.65.47l.37-.47h.6v2.37h-.66c-.66-1.01-1.34-1.68-2.15-1.68-.71,0-1.21.42-1.21,1.04,0,.69.62.96,1.81,1.28,1.73.45,2.59,1.08,2.59,2.37,0,1.5-1.14,2.65-2.97,2.65-.62,0-1.53-.25-1.97-.52l-.5.52h-.62v-2.65Z"/><path d="M189.87,16.43v-4.69h-1.44v-.64l1.48-.3v-2.1l1.97-.66v2.79h2.47v.87h-2.47v4.62c0,.84.34,1.28.97,1.28.47,0,.89-.39,1.26-1.01l.49.32c-.59,1.19-1.36,1.78-2.57,1.78s-2.15-.66-2.15-2.27Z"/><path d="M195.23,17.96c.96-.02,1.18-.18,1.18-.59v-5.04c0-.5-.22-.81-1.18-.82v-.6l3.14-.13v1.36c.59-.76,1.38-1.41,2.27-1.41.96,0,1.43.62,1.43,1.34s-.45,1.23-1.09,1.23c-.69,0-1.14-.39-1.14-1.01,0-.08.02-.22.03-.32-.59-.02-1.14.4-1.46.81v4.6c0,.4.29.55,1.48.59v.6h-4.65v-.6Z"/><path d="M202.85,16.79c0-.67.35-1.41,1.06-1.8,1.23-.67,3.16-.77,3.63-.97v-.76c0-1.44-.45-1.88-1.41-1.88-.39,0-.67.1-.89.27.12.25.22.52.22.82,0,.62-.44,1.09-1.16,1.09s-1.09-.45-1.09-1.08c0-1.01,1.33-1.76,3.39-1.76s2.91.91,2.91,2.7v3.44c0,.82.18.99,1.19.82l.15.47c-.62.34-1.14.52-1.76.52-1.02,0-1.24-.39-1.44-1.19h-.07c-.67.71-1.55,1.23-2.52,1.23-1.55,0-2.2-.99-2.2-1.93ZM207.54,16.8v-2.17c-1.95.32-2.54.69-2.54,1.71,0,.74.4,1.26,1.16,1.26.57,0,1.08-.39,1.38-.81Z"/><path d="M211.29,17.96c.96-.02,1.18-.18,1.18-.59v-5.04c0-.5-.22-.81-1.18-.82v-.6l3.14-.13v1.36c.59-.76,1.38-1.41,2.27-1.41.96,0,1.43.62,1.43,1.34s-.45,1.23-1.09,1.23c-.69,0-1.14-.39-1.14-1.01,0-.08.02-.22.03-.32-.59-.02-1.14.4-1.46.81v4.6c0,.4.29.55,1.48.59v.6h-4.65v-.6Z"/><path class="cls-1" d="M181.52,26.89h0c-3.1,0-4.72,2.2-4.72,4.37,0,2.49,1.96,4.37,4.56,4.37s4.63-1.88,4.63-4.47c0-2.43-1.92-4.26-4.46-4.26ZM183.87,31.5c0,2.07-.89,3.29-2.28,3.29-1.56,0-2.7-1.51-2.7-3.77,0-2.03.97-3.33,2.36-3.33h0c1.58,0,2.6,1.42,2.6,3.8Z"/><path class="cls-1" d="M140.85,26.89h0c-3.1,0-4.72,2.2-4.72,4.37,0,2.49,1.96,4.37,4.56,4.37s4.63-1.88,4.63-4.47c0-2.43-1.92-4.26-4.46-4.26ZM143.21,31.5c0,2.07-.89,3.42-2.28,3.42-1.56,0-2.7-1.64-2.7-3.89,0-2.03.97-3.45,2.36-3.45h0c1.58,0,2.6,1.54,2.6,3.92Z"/><path class="cls-1" d="M166.45,31.97v3.18s-.33.07-.33.07c-.78.18-1.75.4-2.65.4-3.1,0-5.11-1.68-5.11-4.29,0-3.05,2.64-4.44,5.1-4.44,1.11,0,2.71.44,2.71.44v1.99s-.77-1.62-2.65-1.62c-1.26,0-2.41.74-2.84,2.02-.15.45-.22.93-.22,1.39,0,2.64,1.58,3.7,3.14,3.7.23,0,.55-.04.73-.14.18-.11.27-.33.27-.65v-1.76c0-1.09-.78-1.41-.78-1.41h3.21s-.57.14-.57,1.11Z"/><path class="cls-1" d="M204.02,31.97v3.18s-.33.07-.33.07c-.78.18-1.75.4-2.65.4-3.1,0-5.11-1.68-5.11-4.29,0-3.05,2.64-4.44,5.1-4.44,1.11,0,2.71.44,2.71.44v1.99s-.77-1.62-2.65-1.62c-1.26,0-2.41.74-2.84,2.02-.15.45-.22.93-.22,1.39,0,2.64,1.58,3.7,3.14,3.7.23,0,.55-.04.73-.14.18-.11.27-.33.27-.65v-1.76c0-1.09-.78-1.41-.78-1.41h3.21s-.57.14-.57,1.11Z"/><path class="cls-1" d="M83.06,27.08c.5.21.39.86.18,1.38-.1.28-1.27,3.07-1.8,4.36-.2-.55-1.51-4.24-1.58-4.43-.17-.47-.15-.82.26-1.31h-3.35c.71.44.91.87,1.32,1.94.69,1.79,1.65,4.34,2.41,6.36l.02.05h.89l2.65-6.45c.29-.72.81-1.59,1.41-1.9h-2.41Z"/><path class="cls-1" d="M91.71,34.13c-.42.48-1.55.45-1.71.45-.55,0-.85-.02-1.06-.11-.22-.09-.26-.39-.26-.97v-1.82h1.03c.93,0,1.56.05,1.75.5v-1.95c-.18.45-.78.53-1.75.53h-1.03v-2.68c0-.09.08-.17.17-.17h1.53c.76,0,1.13.13,1.44.51.31.38.51.96.51.96v-2.3h-6.23c.2.13.71.6.71,1.89v4.52c0,1.6-.78,1.93-.78,1.93h6.46v-2.46s-.35.69-.77,1.17Z"/><path class="cls-1" d="M172.6,34.58c-.55,0-.85-.02-1.06-.11-.22-.09-.26-.39-.26-.97v-1.82h1.03c.93,0,1.56.05,1.75.5v-1.95c-.18.45-.78.53-1.75.53h-1.03v-2.48q0-.36.46-.36h1.24c.76,0,1.13.13,1.44.51.31.38.51.96.51.96v-2.3s-6.29,0-6.29,0c.2.13.71.6.71,1.89v4.52c0,1.6-.78,1.93-.78,1.93h6.52s0-2.46,0-2.46c0,0-.35.69-.77,1.17s-1.55.45-1.71.45Z"/><path class="cls-1" d="M209.53,35.42s-.78-.33-.78-1.93v-4.52c0-1.29.51-1.76.71-1.89h-3.25c.2.13.71.6.71,1.89v4.52c0,1.6-.78,1.93-.78,1.93h3.4Z"/><path class="cls-1" d="M71.21,35.42s-.78-.33-.78-1.93v-4.52c0-1.29.51-1.76.71-1.89h-2.33c.2.13.71.6.71,1.89v3.39s-4.64-5.28-4.64-5.28h-2.04c.2.13.71.6.71,1.89v4.52c0,1.6-.78,1.93-.78,1.93h2.5s-.78-.33-.78-1.93v-3.97s4.95,5.91,4.95,5.91h1.8Z"/><path class="cls-1" d="M113.88,35.42s-.78-.33-.78-1.93v-4.52c0-1.29.51-1.76.71-1.89h-3.21c.2.13.71.6.71,1.89v4.52c0,1.6-.78,1.93-.78,1.93h3.37Z"/><path class="cls-1" d="M76.12,35.42s-.78-.33-.78-1.93v-4.52c0-1.29.51-1.76.71-1.89h-3.23c.2.13.71.6.71,1.89v4.52c0,1.6-.78,1.93-.78,1.93h3.38Z"/><path class="cls-1" d="M219.1,35.42c-.71-.44-.91-.87-1.32-1.94-.69-1.79-1.65-4.34-2.41-6.36l-.02-.05h-1.01l-2.65,6.45c-.29.72-.81,1.59-1.41,1.9h2.46c-.5-.21-.39-.86-.18-1.38.04-.1.18-.45.36-.9h2.74c.19.53.33.92.35.98.17.47.15.82-.26,1.31h3.35ZM213.31,32.19c.5-1.22,1.07-2.59,1.07-2.59,0,0,.49,1.36.94,2.59h-2.01Z"/><path class="cls-1" d="M106.37,30.28c-1.19-.56-1.6-.89-1.63-1.59-.02-.57.37-1.12,1.22-1.12,1.25,0,1.91.69,2.28,1.46v-1.79c-.21-.07-1.28-.34-2.14-.34-1.82,0-3.04,1.07-3.04,2.49s1.11,2.01,2.5,2.67c1,.49,1.55.81,1.55,1.57,0,.7-.4,1.24-1.24,1.24-1.38,0-2.36-1.27-2.68-2.08l.04,2.12c.15.08.76.38,1.19.49.38.1.82.19,1.28.19,1.82,0,3.22-.89,3.22-2.6,0-1.27-1.14-2.08-2.54-2.73Z"/><path class="cls-1" d="M150.25,35.42s-.78-.33-.78-1.93v-1.78h1.03c.93,0,1.56.05,1.75.5v-1.98c-.18.45-.78.53-1.75.53h-1.03v-2.51q0-.36.46-.36h1.24c.76,0,1.13.13,1.44.51.31.38.51.96.51.96v-2.27s-6.25,0-6.25,0c.2.13.71.6.71,1.89v4.52c0,1.6-.78,1.93-.78,1.93h3.46Z"/><path class="cls-1" d="M119.78,28.27q0-.36.46-.36h.39c.76,0,1.13.13,1.44.51.31.38.51.96.51.96v-2.3s-7.48,0-7.48,0v2.3s.2-.57.51-.96c.31-.38.68-.51,1.44-.51h.39q.46,0,.46.36v5.22c0,1.6-.78,1.93-.78,1.93h3.44s-.78-.33-.78-1.93v-5.22Z"/><path class="cls-1" d="M59.85,31.69v-2.72c0-1.29-.51-1.76-.71-1.89h2.41c-.2.13-.71.6-.71,1.89v2.68s.38,3.91-3.22,3.98c0,0-3.73.2-3.73-2.93v-3.72c0-1.29-.51-1.76-.71-1.89h3.23c-.2.13-.71.6-.71,1.89v3.17c0,2.66,2.02,2.59,2.02,2.59,0,0,2.12.39,2.12-3.04Z"/><path class="cls-1" d="M128.26,27.09s.98.52.62,1.28l-1.24,2.43-1.3-2.36c-.46-.84.38-1.35.38-1.35h-3.58s.76.4,1.35,1.41l1.85,3.18v1.8c0,1.6-.78,1.93-.78,1.93h3.39s-.78-.33-.78-1.93v-1.9l1.56-2.92c.59-1.14,1.6-1.58,1.6-1.58h-3.08Z"/><path class="cls-1" d="M99.02,29.49c0,.64-.19,1.1-.6,1.45h0c-.24.21-.65.32-1.25.32h-.24v-3c0-.24.02-.35.08-.41.1-.08.29-.12.56-.12.7,0,1.45.46,1.45,1.76ZM100.67,33.55c-.37-.61-.93-1.51-1.21-2.02.59-.25,1.5-.82,1.5-2.03h0c0-.06,0-.12,0-.19,0-.73-.31-1.35-.89-1.74-.53-.35-1.18-.49-2.39-.49h-3.29c.2.13.71.6.71,1.89v4.52c0,1.6-.78,1.93-.78,1.93h3.38s-.78-.33-.78-1.93v-1.58h.26c.38,0,.6.13.81.49.13.23.25.45.37.68.24.43.54,1.01.76,1.35.52.8.95,1.15,2.56,1.1,0,0,.27,0,.48-.03,0,0-.55-.4-1.49-1.95Z"/><path class="cls-1" d="M192.14,29.49c0,.64-.19,1.1-.6,1.45h0c-.24.21-.65.32-1.25.32h-.24v-3c0-.24.02-.35.08-.41.1-.08.29-.12.56-.12.7,0,1.45.46,1.45,1.76ZM193.79,33.55c-.37-.61-.93-1.51-1.21-2.02.59-.25,1.5-.82,1.5-2.03h0c0-.06,0-.12,0-.19,0-.73-.31-1.35-.89-1.74-.53-.35-1.18-.49-2.39-.49h-3.29c.2.13.71.6.71,1.89v4.52c0,1.6-.78,1.93-.78,1.93h3.38s-.78-.33-.78-1.93v-1.58h.26c.38,0,.6.13.81.49.13.23.25.45.37.68.24.43.54,1.01.76,1.35.52.8.95,1.15,2.56,1.1,0,0,.27,0,.48-.03,0,0-.55-.4-1.49-1.95Z"/></svg>